<svg width="20" height="23" viewBox="0 0 20 23" fill="none" xmlns="http://www.w3.org/2000/svg">
<path d="M10 0C9.20974 0 8.57129 0.628634 8.57129 1.40673V2.25077C5.31203 2.90139 2.85643 5.74123 2.85643 9.14377V10.2604C2.85643 12.2562 2.1644 14.1948 0.900877 15.751L0.235632 16.5731C-0.023322 16.8896 -0.0724341 17.3248 0.106155 17.6897C0.284744 18.0546 0.659782 18.2875 1.07054 18.2875H18.9295C19.3402 18.2875 19.7153 18.0546 19.8938 17.6897C20.0724 17.3248 20.0233 16.8896 19.7644 16.5731L19.0991 15.7554C17.8356 14.1948 17.1436 12.2562 17.1436 10.2604V9.14377C17.1436 5.74123 14.688 2.90139 11.4287 2.25077V1.40673C11.4287 0.628634 10.7903 0 10 0ZM10 4.2202C12.7637 4.2202 15.0005 6.42262 15.0005 9.14377V10.2604C15.0005 12.3661 15.6211 14.419 16.773 16.1774H3.227C4.3789 14.419 4.9995 12.3661 4.9995 10.2604V9.14377C4.9995 6.42262 7.23633 4.2202 10 4.2202ZM12.8574 19.6943H10H7.14257C7.14257 20.4416 7.44171 21.1582 7.97748 21.6857C8.51324 22.2132 9.241 22.5077 10 22.5077C10.759 22.5077 11.4868 22.2132 12.0225 21.6857C12.5583 21.1582 12.8574 20.4416 12.8574 19.6943Z" fill="#333333"/>
</svg>
