<svg width="24" height="21" viewBox="0 0 24 21" fill="none" xmlns="http://www.w3.org/2000/svg">
<path d="M22.9996 2.62564H6.01166L5.64808 0.795569C5.55625 0.333456 5.14492 0 4.66667 0H0.5C0.223875 0 0 0.220431 0 0.492308V1.47692C0 1.7488 0.223875 1.96923 0.5 1.96923H3.84333L6.74308 16.5621C6.28316 17.0339 6 17.6739 6 18.3795C6 19.8296 7.19391 21.0051 8.66666 21.0051C10.1394 21.0051 11.3333 19.8296 11.3333 18.3795C11.3338 17.9185 11.2105 17.4655 10.9757 17.0667H17.0243C16.7896 17.4655 16.6662 17.9185 16.6667 18.3795C16.6667 19.8296 17.8606 21.0051 19.3334 21.0051C20.8061 21.0051 22 19.8296 22 18.3795C22 17.6354 21.6852 16.9643 21.1802 16.4865L21.2233 16.2913C21.3589 15.6776 20.8841 15.0974 20.2462 15.0974H8.49L8.09875 13.1282H21.1156C21.586 13.1282 21.9929 12.8054 22.0928 12.3527L23.9768 3.8194C24.1123 3.2057 23.6375 2.62564 22.9996 2.62564ZM8.66666 19.3641C8.11525 19.3641 7.66666 18.9224 7.66666 18.3795C7.66666 17.8366 8.11525 17.3949 8.66666 17.3949C9.21808 17.3949 9.66666 17.8366 9.66666 18.3795C9.66666 18.9224 9.21808 19.3641 8.66666 19.3641ZM19.3333 19.3641C18.7819 19.3641 18.3333 18.9224 18.3333 18.3795C18.3333 17.8366 18.7819 17.3949 19.3333 17.3949C19.8847 17.3949 20.3333 17.8366 20.3333 18.3795C20.3333 18.9224 19.8847 19.3641 19.3333 19.3641ZM20.3099 11.159H7.7075L6.40292 4.59487H21.7591L20.3099 11.159Z" fill="#333333"/>
</svg>
