<svg width="60" height="16" viewBox="0 0 60 16" fill="none" xmlns="http://www.w3.org/2000/svg">
<path d="M5.39485 11.7071C5.72955 12.0976 6.27312 12.0976 6.60783 11.7071L11.749 5.70826C12.0837 5.31771 12.0837 4.68346 11.749 4.29291C11.4143 3.90236 10.8707 3.90236 10.536 4.29291L6 9.58563L1.46402 4.29604C1.12931 3.90549 0.585741 3.90549 0.251032 4.29604C-0.0836773 4.68658 -0.0836773 5.32084 0.251032 5.71138L5.39217 11.7102L5.39485 11.7071Z" fill="#333333"/>
<path d="M38.0476 7.0232H20.2513L24.4978 2.66742C24.8698 2.28608 24.8698 1.66746 24.4978 1.28618C24.1258 0.904608 23.5227 0.904608 23.1512 1.28618L17.279 7.30927C16.907 7.69061 16.907 8.30928 17.279 8.69051L23.1512 14.7139C23.3371 14.9047 23.5808 15 23.8245 15C24.0681 15 24.3118 14.9047 24.4978 14.7139C24.8698 14.3325 24.8698 13.7139 24.4978 13.3327L20.2513 8.97669H38.0476C38.5735 8.97669 39 8.53933 39 7.99992C39 7.46051 38.5736 7.0232 38.0476 7.0232Z" fill="#999999"/>
<path d="M49.9271 0C51.499 0 53.0066 0.62612 54.1181 1.74062C55.2296 2.85512 55.8541 4.36671 55.8541 5.94286C55.8541 7.41486 55.3161 8.768 54.4316 9.81029L54.6778 10.0571H55.3982L59.9574 14.6286L58.5897 16L54.0304 11.4286V10.7063L53.7842 10.4594C52.7447 11.3463 51.3951 11.8857 49.9271 11.8857C48.3551 11.8857 46.8475 11.2596 45.736 10.1451C44.6245 9.03059 44 7.519 44 5.94286C44 4.36671 44.6245 2.85512 45.736 1.74062C46.8475 0.62612 48.3551 0 49.9271 0V0ZM49.9271 1.82857C47.6474 1.82857 45.8237 3.65714 45.8237 5.94286C45.8237 8.22857 47.6474 10.0571 49.9271 10.0571C52.2067 10.0571 54.0304 8.22857 54.0304 5.94286C54.0304 3.65714 52.2067 1.82857 49.9271 1.82857Z" fill="#999999"/>
</svg>
