<svg width="20" height="21" viewBox="0 0 20 21" fill="none" xmlns="http://www.w3.org/2000/svg">
<path d="M19 17.25V10.261C19 9.12944 19 8.56367 18.8559 8.04144C18.7282 7.5788 18.5184 7.14291 18.2363 6.75462C17.9179 6.3163 17.4757 5.96349 16.5911 5.25786L16.5911 5.25785L13.9911 3.18378C12.5664 2.04726 11.854 1.47901 11.0644 1.26102C10.3678 1.06874 9.63218 1.06874 8.93562 1.26102C8.14596 1.47901 7.43361 2.04726 6.00891 3.18378L3.40891 5.25785L3.40891 5.25785C2.52435 5.96349 2.08207 6.3163 1.76368 6.75462C1.48163 7.14291 1.27176 7.5788 1.1441 8.04144C1 8.56367 1 9.12943 1 10.261V17.25C1 17.9478 1 18.2967 1.08612 18.5806C1.28002 19.2198 1.78023 19.72 2.41943 19.9139C2.70333 20 3.05222 20 3.75 20H4.32051C4.48718 20 4.57051 20 4.64085 19.995C5.63439 19.9249 6.42489 19.1344 6.49503 18.1409C6.5 18.0705 6.5 17.9872 6.5 17.8205V14.7821C6.5 12.8491 8.067 11.2821 10 11.2821C11.933 11.2821 13.5 12.8491 13.5 14.782V17.8205C13.5 17.9872 13.5 18.0705 13.505 18.1409C13.5751 19.1344 14.3656 19.9249 15.3591 19.995C15.4295 20 15.5128 20 15.6795 20H16.25C16.9478 20 17.2967 20 17.5806 19.9139C18.2198 19.72 18.72 19.2198 18.9139 18.5806C19 18.2967 19 17.9478 19 17.25Z" stroke="#878787" stroke-width="1.8"/>
</svg>
