<svg width="49" height="19" viewBox="0 0 49 19" fill="none" xmlns="http://www.w3.org/2000/svg">
<path d="M5.54404 4.85152C5.44367 4.6367 5.23157 4.5 4.99864 4.5C4.76571 4.5 4.5555 4.6367 4.45324 4.85152L3.23557 7.43522L0.516165 7.84923C0.288917 7.88439 0.0995432 8.04843 0.029475 8.27302C-0.0405933 8.4976 0.0162188 8.74562 0.17908 8.91162L2.15235 10.9251L1.68649 13.7704C1.64862 14.0048 1.74331 14.243 1.93079 14.3817C2.11827 14.5204 2.36635 14.5379 2.57087 14.4266L5.00053 13.0889L7.4302 14.4266C7.63472 14.5379 7.8828 14.5223 8.07028 14.3817C8.25776 14.2411 8.35245 14.0048 8.31457 13.7704L7.84682 10.9251L9.82009 8.91162C9.98295 8.74562 10.0417 8.4976 9.9697 8.27302C9.89774 8.04843 9.71026 7.88439 9.48301 7.84923L6.76171 7.43522L5.54404 4.85152Z" fill="#FFB600"/>
<path d="M15 18V16.9375C15 14.965 15.7375 13.0732 17.0503 11.6784C18.363 10.2836 20.1435 9.5 22 9.5M22 9.5C23.8565 9.5 25.637 10.2836 26.9497 11.6784C28.2625 13.0732 29 14.965 29 16.9375V18M22 9.5C23.0609 9.5 24.0783 9.05223 24.8284 8.2552C25.5786 7.45817 26 6.37717 26 5.25C26 4.12283 25.5786 3.04183 24.8284 2.2448C24.0783 1.44777 23.0609 1 22 1C20.9391 1 19.9217 1.44777 19.1716 2.2448C18.4214 3.04183 18 4.12283 18 5.25C18 6.37717 18.4214 7.45817 19.1716 8.2552C19.9217 9.05223 20.9391 9.5 22 9.5Z" stroke="#333333" stroke-width="1.5" stroke-linecap="round" stroke-linejoin="round"/>
<path d="M41.5 17C45.5957 17 49 13.6029 49 9.5C49 5.40427 45.6029 2 41.5072 2C41.1176 2 40.9265 2.2353 40.9265 2.61742V5.47047C40.9265 5.78671 41.1398 6.04396 41.463 6.04396C41.7867 6.04396 42.0073 5.78671 42.0073 5.47047V3.27186C45.2428 3.52911 47.7426 6.20585 47.7426 9.5C47.746 10.3211 47.5869 11.1347 47.2745 11.8941C46.962 12.6534 46.5025 13.3434 45.9222 13.9244C45.3419 14.5054 44.6525 14.9658 43.8935 15.2791C43.1346 15.5924 42.3211 15.7525 41.5 15.7501C38.0292 15.7501 35.2427 12.9705 35.2499 9.5C35.2571 7.95583 35.8086 6.55158 36.7279 5.47047C36.9556 5.18372 36.9704 4.8383 36.7279 4.58073C36.485 4.31626 36.0734 4.33822 35.8086 4.6692C34.6836 5.97777 34 7.66908 34 9.5C34 13.6029 37.3971 17 41.5 17ZM42.6765 10.6322C43.2572 10.0293 43.1399 9.20572 42.4412 8.7207L38.5509 6.00726C38.1836 5.75 37.8011 6.13244 38.0584 6.49981L40.7718 10.3897C41.2572 11.0884 42.0807 11.2133 42.6765 10.6322Z" fill="#333333"/>
</svg>
