<svg width="18" height="20" viewBox="0 0 18 20" fill="none" xmlns="http://www.w3.org/2000/svg">
<path d="M2 1.84127C1.725 1.84127 1.5 2.18413 1.5 2.60317V17.8413C1.5 18.2603 1.725 18.6032 2 18.6032H16C16.275 18.6032 16.5 18.2603 16.5 17.8413V2.60317C16.5 2.18413 16.275 1.84127 16 1.84127H2ZM0 2.60317C0 0.922222 0.896875 0 2 0H16C17.1031 0 18 0.922222 18 2.60317V17.8413C18 19.5222 17.1031 20 16 20H2C0.896875 20 0 19.5222 0 17.8413V2.60317Z" fill="#878787"/>
<circle cx="3" cy="5" r="1" fill="#878787"/>
<rect x="6" y="4" width="10" height="2" rx="1" fill="#878787"/>
<circle cx="3" cy="10" r="1" fill="#878787"/>
<rect x="6" y="9" width="10" height="2" rx="1" fill="#878787"/>
<circle cx="3" cy="15" r="1" fill="#878787"/>
<rect x="6" y="14" width="10" height="2" rx="1" fill="#878787"/>
</svg>
